<svg xmlns="http://www.w3.org/2000/svg" height="1024" viewBox="0 0 1024 1024.0022"><g transform="matrix(8.93192 0 0 8.93192 4773.8-746.81)"><path d="m-441.51 198.26h-71.27c-11.929 0-21.689-9.76-21.689-21.69v-71.27c0-11.93 9.76-21.69 21.689-21.69h71.27c11.929 0 21.69 9.76 21.69 21.69v71.27c0 11.93-9.761 21.69-21.69 21.69" fill="#e4dcd5"/><path d="m-441.51 83.61h-71.27c-11.929 0-21.689 9.741-21.689 21.648v57.979c0 11.905 9.76 21.646 21.689 21.646h71.27c11.929 0 21.69-9.741 21.69-21.646v-57.979c0-11.906-9.761-21.648-21.69-21.648" fill="#fff6ee"/><g fill="#e4dcd5"><path d="m-440.92 162.45h-70.869v-78.84h3.098v75.75h64.67v-37.567h3.099v40.666"/><path d="m-442.47 134.44h-13.805v-3.099h13.805v3.099"/><path d="m-484.94 160.91h-3.099v-53.641h3.099v53.641"/><path d="m-471.46 184.88h-3.099v-23.979h3.099v23.979"/><path d="m-454.98 177.69h-18.03v-3.099h18.03v3.099"/></g><path d="m-465.27 160.58c0 4.279-3.469 7.746-7.746 7.746-4.279 0-7.746-3.468-7.746-7.746 0-4.278 3.467-7.746 7.746-7.746 4.277 0 7.746 3.469 7.746 7.746" fill="#4b556a"/><path d="m-473.01 134.31c-5.166 0-9.355-4.189-9.355-9.355 0-5.166 4.189-9.355 9.355-9.355 5.166 0 9.355 4.189 9.355 9.355 0 5.166-4.189 9.355-9.355 9.355m0-28.18c-10.397 0-18.826 8.429-18.826 18.826 0 1.317.139 2.604.396 3.845.509 3.571 11.406 23.65 11.406 23.65 4.665 9.643 8.433 10.434 13.571.532 0 0 10.404-17.354 11.87-24.13.265-1.257.409-2.559.409-3.895 0-10.397-8.429-18.826-18.826-18.826" fill="#d14242"/><path d="m-473.01 130.81c-5.166 0-9.355-4.189-9.355-9.355 0-5.166 4.189-9.355 9.355-9.355 5.166 0 9.355 4.189 9.355 9.355 0 5.166-4.189 9.355-9.355 9.355m0-28.18c-10.397 0-18.826 8.429-18.826 18.826 0 1.317.139 2.604.396 3.846.509 3.57 11.406 23.649 11.406 23.649 4.665 9.643 8.433 10.434 13.571.532 0 0 10.404-17.354 11.87-24.13.265-1.257.409-2.559.409-3.895 0-10.397-8.429-18.826-18.826-18.826" fill="#f66262"/></g></svg>